# xmcd
#
# Track frame offsets: 
#        150
#        12865
#        25072
#        39860
#        55205
#        70147
#        84247
#        98147
#        111807
#        125782
#        140017
#        153437
#        167887
#        180602
#        195315
#        208365
#        221700
#        235277
#        249142
#        263962
#        278112
#        293025
#        306177
#
# Disc length: 4255 seconds
#
# Revision: 7
# Processed by: cddbd v1.5.2PL0 Copyright (c) Steve Scherf et al.
# Submitted via: ExactAudioCopyFreeDBPlugin 1.0
#
DISCID=49109d17
DTITLE=Bessie Smith - The Complete Recordings [Frog Records]
DYEAR=2003
DGENRE=Blues
TTITLE0=What's the Matter, Now
TTITLE1=I Want Ev'ry Bit of It
TTITLE2=Jazzbo Brown from Memphis Town
TTITLE3=The Gin House Blues
TTITLE4=Money Blues
TTITLE5=Baby Doll
TTITLE6=Hard Driving Papa
TTITLE7=Lost Your Head Blues
TTITLE8=Hard Time Blues
TTITLE9=Honey Man Blues
TTITLE10=One and Two Blues
TTITLE11=Young Woman's Blues
TTITLE12=Preachin' the Blues
TTITLE13=Back-Water Blues
TTITLE14=After You've Gone
TTITLE15=Alexander's Ragtime Band
TTITLE16=Muddy Water (A Mississippi Moan) (take 1)
TTITLE17=Muddy Water (A Mississippi Moan) (take 2)
TTITLE18=There'll Be a Hot Time in the Old Town, Tonight
TTITLE19=Trombone Cholly
TTITLE20=Send Me to the 'Lectric Chair
TTITLE21=Them's Graveyard Words
TTITLE22=Hot Springs Blues
EXTD=YEAR: 2003
EXTT0=
EXTT1=
EXTT2=
EXTT3=
EXTT4=
EXTT5=
EXTT6=
EXTT7=
EXTT8=
EXTT9=
EXTT10=
EXTT11=
EXTT12=
EXTT13=
EXTT14=
EXTT15=
EXTT16=
EXTT17=
EXTT18=
EXTT19=
EXTT20=
EXTT21=
EXTT22=
PLAYORDER=
